HIERARCHY
ROOT Hips
{
	OFFSET 52.657501 -4.600165 91.721703
	CHANNELS 6 Xposition Yposition Zposition Xrotation Yrotation Zrotation
	JOINT spine
	{
		OFFSET 0.000000 -0.393702 6.846367
		CHANNELS 3 Xrotation Yrotation Zrotation
		JOINT spine1
		{
			OFFSET 0.000000 -0.000001 9.496208
			CHANNELS 3 Xrotation Yrotation Zrotation
			JOINT spine2
			{
				OFFSET 0.000000 -0.000001 9.099091
				CHANNELS 3 Xrotation Yrotation Zrotation
				JOINT Neck
				{
					OFFSET 0.000000 -1.113784 23.361198
					CHANNELS 3 Xrotation Yrotation Zrotation
					JOINT Head
					{
						OFFSET 0.000000 -0.000001 7.058014
						CHANNELS 3 Xrotation Yrotation Zrotation
						End Site
						{
							OFFSET 0.000000 5.634187 17.084396
						}
					}
				}
				JOINT RightShoulder
				{
					OFFSET -3.831360 0.533490 9.826309
					CHANNELS 3 Xrotation Yrotation Zrotation
					JOINT RightArm
					{
						OFFSET 0.000000 -0.000002 12.888100
						CHANNELS 3 Xrotation Yrotation Zrotation
						JOINT RightArmRoll
						{
							OFFSET 0.000000 -0.000001 6.506165
							CHANNELS 3 Xrotation Yrotation Zrotation
							JOINT RightForeArm
							{
								OFFSET 0.000000 -0.000003 18.950104
								CHANNELS 3 Xrotation Yrotation Zrotation
								JOINT RightForeArmRoll
								{
									OFFSET 0.000000 -0.000001 7.300919
									CHANNELS 3 Xrotation Yrotation Zrotation
									JOINT RightHand
									{
										OFFSET 0.000000 -0.000002 14.651398
										CHANNELS 3 Xrotation Yrotation Zrotation
										End Site
										{
											OFFSET 0.000000 0.000000 0.100006
										}
									}
								}
							}
						}
					}
				}
				JOINT LeftShoulder
				{
					OFFSET 3.831360 0.533490 9.826309
					CHANNELS 3 Xrotation Yrotation Zrotation
					JOINT LeftArm
					{
						OFFSET 0.000000 -0.000002 12.888100
						CHANNELS 3 Xrotation Yrotation Zrotation
						JOINT LeftArmRoll
						{
							OFFSET 0.000000 -0.000001 6.506165
							CHANNELS 3 Xrotation Yrotation Zrotation
							JOINT LeftForeArm
							{
								OFFSET 0.000000 -0.000003 18.950104
								CHANNELS 3 Xrotation Yrotation Zrotation
								JOINT LeftForeArmRoll
								{
									OFFSET 0.000000 -0.000001 7.300919
									CHANNELS 3 Xrotation Yrotation Zrotation
									JOINT LeftHand
									{
										OFFSET 0.000000 -0.000002 14.651398
										CHANNELS 3 Xrotation Yrotation Zrotation
										End Site
										{
											OFFSET 0.000000 0.000000 0.100006
										}
									}
								}
							}
						}
					}
				}
			}
		}
	}
	JOINT RightUpLeg
	{
		OFFSET -6.068371 0.933477 -1.112778
		CHANNELS 3 Xrotation Yrotation Zrotation
		JOINT RightUpLegRoll
		{
			OFFSET 0.000000 -0.000003 17.179604
			CHANNELS 3 Xrotation Yrotation Zrotation
			JOINT RightLeg
			{
				OFFSET 0.000000 0.000004 -21.274300
				CHANNELS 3 Xrotation Yrotation Zrotation
				JOINT RightLegRoll
				{
					OFFSET 0.000000 -0.000004 21.343903
					CHANNELS 3 Xrotation Yrotation Zrotation
					JOINT RightFoot
					{
						OFFSET 0.000000 -0.000003 17.765198
						CHANNELS 3 Xrotation Yrotation Zrotation
						JOINT RightToeBase
						{
							OFFSET 0.000000 -0.000002 14.850792
							CHANNELS 3 Xrotation Yrotation Zrotation
							End Site
							{
								OFFSET 0.006294 0.829003 7.192139
							}
						}
					}
				}
			}
		}
	}
	JOINT LeftUpLeg
	{
		OFFSET 6.068371 0.933477 -1.112778
		CHANNELS 3 Xrotation Yrotation Zrotation
		JOINT LeftUpLegRoll
		{
			OFFSET 0.000000 -0.000003 17.179703
			CHANNELS 3 Xrotation Yrotation Zrotation
			JOINT LeftLeg
			{
				OFFSET 0.000000 -0.000003 21.274208
				CHANNELS 3 Xrotation Yrotation Zrotation
				JOINT LeftLegRoll
				{
					OFFSET 0.000000 -0.000004 21.541199
					CHANNELS 3 Xrotation Yrotation Zrotation
					JOINT LeftFoot
					{
						OFFSET 0.000000 -0.000003 17.567902
						CHANNELS 3 Xrotation Yrotation Zrotation
						JOINT LeftToeBase
						{
							OFFSET 0.000000 -0.000002 14.850800
							CHANNELS 3 Xrotation Yrotation Zrotation
							End Site
							{
								OFFSET -0.028210 0.829004 7.192139
							}
						}
					}
				}
			}
		}
	}
}
MOTION
Frames: 7
Frame Time: 0.041667
50.933105 -5.657645 91.473389 3.267284 4.536045 1.135085 -3.659763 0.860312 0.419530 -3.319276 1.683822 0.882402 -1.673962 1.694266 0.862160 20.415036 -30.003214 -1.517987 4.125243 16.545780 -3.230639 -22.354741 -24.675652 -27.597997 -125.857983 -207.240971 -81.481548 0.000001 0.000007 -0.000002 35.076884 3.605008 -0.220177 0.000006 0.000010 -2.999999 -5.000228 -7.999009 0.000145 3.343260 60.435133 -3.721161 -30.380005 109.692934 1.911266 0.000001 0.000000 0.000003 1.346759 5.792711 0.114009 -0.000005 -0.000017 3.008460 -5.000206 7.999080 -0.000120 -5.844611 -182.404464 -3.146798 -179.999991 0.000005 -0.892005 175.729129 -1.690298 -0.169209 -0.000000 -0.000003 0.044579 69.175637 6.901910 2.096339 25.456957 -7.355625 0.000004 -5.330362 168.568331 -2.454049 -0.000005 -0.000005 -0.963933 -8.047321 1.530695 0.346073 -0.000001 -0.000002 -0.158806 70.423109 -6.853886 -2.130220 25.456960 7.355614 0.000000 
50.934204 -5.666817 91.473587 3.255200 4.538945 1.134800 -3.656822 0.858493 0.420733 -3.312449 1.681896 0.884419 -1.667138 1.692363 0.864202 20.383153 -29.948716 -1.538588 4.063999 16.491589 -3.227585 -22.345416 -24.682441 -27.583639 -125.756459 -207.303194 -81.585018 0.000000 0.000004 -0.000003 35.048375 3.577110 -0.222212 0.000003 0.000011 -2.999998 -5.000224 -7.999013 0.000143 3.306657 60.445350 -3.677236 -30.374910 109.715624 1.918499 0.000001 0.000001 0.000003 1.358995 5.798110 0.113850 -0.000006 -0.000017 3.008457 -5.000206 7.999084 -0.000120 -5.833328 -182.410502 -3.146380 -179.999991 0.000005 -0.892004 175.727763 -1.694286 -0.169548 -0.000000 -0.000003 0.044576 69.176060 6.901894 2.096411 25.456957 -7.355624 0.000004 -5.320602 168.562170 -2.457259 -0.000005 -0.000004 -0.964275 -8.052580 1.527160 0.345952 -0.000000 -0.000002 -0.158680 70.423109 -6.853885 -2.130321 25.456962 7.355614 0.000001 
50.923603 -5.666405 91.474091 3.243829 4.542171 1.135211 -3.653919 0.856650 0.421882 -3.305713 1.679981 0.886366 -1.660414 1.690471 0.866171 20.349770 -29.896284 -1.559318 4.003026 16.438877 -3.224611 -22.337130 -24.690017 -27.570859 -125.659922 -207.360199 -81.686447 0.000001 0.000006 -0.000003 35.016730 3.550529 -0.224531 0.000005 0.000010 -2.999999 -5.000221 -7.999011 0.000141 3.271350 60.454544 -3.634964 -30.368756 109.738109 1.925812 0.000001 0.000000 0.000003 1.371887 5.804279 0.113702 -0.000005 -0.000017 3.008460 -5.000206 7.999083 -0.000120 -5.822768 -182.417496 -3.146176 -179.999991 0.000005 -0.892004 175.726397 -1.697266 -0.168815 -0.000000 -0.000003 0.044572 69.176477 6.901883 2.096382 25.456955 -7.355625 0.000004 -5.312082 168.555040 -2.460352 -0.000005 -0.000005 -0.964589 -8.058179 1.523693 0.345841 -0.000000 -0.000002 -0.158565 70.423403 -6.853824 -2.130393 25.456962 7.355616 -0.000000 
50.913902 -5.668096 91.472984 3.233234 4.545703 1.136303 -3.651107 0.854802 0.422960 -3.299167 1.678055 0.888218 -1.653869 1.688566 0.868047 20.314009 -29.846158 -1.580082 3.944188 16.388586 -3.221833 -22.329543 -24.698335 -27.559176 -125.568561 -207.411562 -81.786277 0.000000 0.000006 -0.000002 34.982047 3.525493 -0.227102 0.000003 0.000010 -2.999999 -5.000223 -7.999010 0.000142 3.237563 60.462863 -3.594569 -30.358309 109.762035 1.929742 0.000001 0.000001 0.000004 1.385472 5.811364 0.113567 -0.000004 -0.000017 3.008458 -5.000210 7.999082 -0.000118 -5.813005 -182.423506 -3.146410 -179.999991 0.000005 -0.893002 175.725072 -1.701255 -0.169152 -0.000000 -0.000003 0.044568 69.176900 6.901867 2.096354 25.456959 -7.355624 0.000004 -5.304849 168.547963 -2.463414 -0.000005 -0.000005 -0.964873 -8.064129 1.520294 0.345742 -0.000000 -0.000002 -0.158464 70.423820 -6.853798 -2.130361 25.456960 7.355617 -0.000001 
50.906799 -5.670787 91.473289 3.223520 4.549529 1.138001 -3.648386 0.852969 0.423951 -3.292890 1.676109 0.889957 -1.647595 1.686642 0.869809 20.275273 -29.798329 -1.600907 3.889382 16.341501 -3.219362 -22.322371 -24.707074 -27.548043 -125.482869 -207.457133 -81.882835 0.000000 0.000004 -0.000002 34.944143 3.502259 -0.229934 0.000008 0.000011 -3.000000 -5.000226 -7.999009 0.000141 3.205552 60.470841 -3.556307 -30.345933 109.785613 1.932865 0.000000 0.000001 0.000006 1.399825 5.819544 0.113442 -0.000007 -0.000017 3.008459 -5.000206 7.999081 -0.000119 -5.804107 -182.430514 -3.146868 -179.999991 0.000005 -0.893001 175.723787 -1.705244 -0.169488 -0.000000 -0.000003 0.044564 69.177221 6.901884 2.096337 25.456953 -7.355623 0.000004 -5.298961 168.540860 -2.466438 -0.000005 -0.000004 -0.965121 -8.070448 1.516992 0.345657 -0.000000 -0.000003 -0.158380 70.424448 -6.853774 -2.130418 25.456959 7.355616 0.000000 
50.899204 -5.667677 91.472694 3.214738 4.553663 1.140298 -3.645792 0.851167 0.424834 -3.286955 1.674143 0.891559 -1.641659 1.684689 0.871435 20.233037 -29.753072 -1.621586 3.840463 16.298771 -3.217297 -22.315434 -24.716445 -27.537243 -125.403202 -207.496475 -81.974325 0.000001 0.000003 -0.000004 34.903028 3.481061 -0.233020 0.000003 0.000011 -3.000001 -5.000223 -7.999010 0.000142 3.175514 60.478573 -3.520370 -30.332693 109.807886 1.936454 0.000001 0.000000 0.000003 1.415008 5.828984 0.113328 -0.000004 -0.000017 3.008461 -5.000209 7.999083 -0.000119 -5.796150 -182.437508 -3.147691 -179.999991 0.000005 -0.893001 175.722544 -1.708238 -0.168752 -0.000000 -0.000003 0.044560 69.177433 6.901895 2.096326 25.456959 -7.355624 0.000004 -5.294528 168.532828 -2.469316 -0.000005 -0.000005 -0.965328 -8.077138 1.513800 0.345588 -0.000000 -0.000002 -0.158316 70.425295 -6.853755 -2.130362 25.456967 7.355614 -0.000000 
50.890701 -5.670687 91.471390 3.207005 4.558070 1.143118 -3.643372 0.849415 0.425596 -3.281459 1.672135 0.893005 -1.636166 1.682704 0.872906 20.186643 -29.710582 -1.642116 3.799303 16.261186 -3.215755 -22.308323 -24.726116 -27.526069 -125.329805 -207.529410 -82.061335 0.000000 0.000007 -0.000003 34.858714 3.462156 -0.236368 0.000004 0.000011 -3.000003 -5.000223 -7.999007 0.000143 3.147670 60.486229 -3.486978 -30.315330 109.830507 1.936985 0.000002 0.000000 0.000004 1.431079 5.839832 0.113231 -0.000007 -0.000017 3.008459 -5.000208 7.999084 -0.000118 -5.789201 -182.445500 -3.148779 -179.999991 0.000005 -0.893001 175.721370 -1.711218 -0.169010 -0.000000 -0.000003 0.044556 69.177638 6.901869 2.096307 25.456957 -7.355624 0.000004 -5.291599 168.524795 -2.472125 -0.000005 -0.000005 -0.965490 -8.084220 1.510733 0.345537 -0.000000 -0.000002 -0.158275 70.426463 -6.853741 -2.130389 25.456962 7.355615 -0.000000 
